<svg width="44" height="39" viewBox="0 0 44 39" fill="none" xmlns="http://www.w3.org/2000/svg">
<path d="M44 19.3359C44 17.6467 42.9108 16.2079 41.3982 15.6825C41.1658 10.4417 39.2092 6.41987 35.573 3.71723C32.2543 1.25065 27.6878 0 22 0C16.3122 0 11.7457 1.25065 8.42703 3.71731C4.79084 6.41987 2.83422 10.4418 2.60176 15.6826C1.08917 16.2079 0 17.6467 0 19.3359C0 20.3257 0.374172 21.2293 0.987852 21.9141C0.374172 22.5988 0 23.5024 0 24.4922C0 26.1918 1.10258 27.6378 2.6296 28.1551C3.18252 34.0454 8.18967 38.6719 14.2656 38.6719H29.7344C35.8103 38.6719 40.8175 34.0454 41.3704 28.1551C42.8974 27.6378 44 26.1918 44 24.4922C44 23.5024 43.6258 22.5988 43.0121 21.9141C43.6258 21.2293 44 20.3257 44 19.3359ZM22 2.57812C29.3933 2.57812 38.1513 4.85719 38.8034 15.4688H5.19655C5.84873 4.85719 14.6067 2.57812 22 2.57812ZM3.86719 18.0469H40.1328C40.8436 18.0469 41.4219 18.6251 41.4219 19.3359C41.4219 20.0467 40.8436 20.625 40.1328 20.625H3.86719C3.1564 20.625 2.57812 20.0467 2.57812 19.3359C2.57812 18.6251 3.1564 18.0469 3.86719 18.0469ZM29.7344 36.0938H14.2656C9.68456 36.0938 5.88302 32.7265 5.24958 28.3594H6.44531C7.30709 28.3594 7.57943 28.6525 8.12187 29.2366C8.78857 29.9545 9.70166 30.9375 11.6875 30.9375C13.6874 30.9375 14.5766 29.9444 15.226 29.2193C15.7387 28.6468 15.996 28.3594 16.8438 28.3594C17.6915 28.3594 17.9488 28.6468 18.4615 29.2193C19.1109 29.9444 20.0001 30.9375 22 30.9375C23.9999 30.9375 24.8891 29.9444 25.5385 29.2193C26.0512 28.6468 26.3085 28.3594 27.1562 28.3594C28.004 28.3594 28.2613 28.6468 28.774 29.2193C29.4234 29.9444 30.3126 30.9375 32.3125 30.9375C34.3124 30.9375 35.2016 29.9444 35.851 29.2193C36.3637 28.6468 36.621 28.3594 37.4688 28.3594H38.7504C38.117 32.7265 34.3154 36.0938 29.7344 36.0938ZM40.1328 25.7812H37.4688C35.4689 25.7812 34.5796 26.7743 33.9303 27.4995C33.4176 28.072 33.1603 28.3594 32.3125 28.3594C31.4647 28.3594 31.2074 28.072 30.6947 27.4995C30.0454 26.7743 29.1561 25.7812 27.1562 25.7812C25.1564 25.7812 24.2671 26.7743 23.6178 27.4995C23.1051 28.072 22.8478 28.3594 22 28.3594C21.1522 28.3594 20.8949 28.072 20.3822 27.4995C19.7329 26.7743 18.8436 25.7812 16.8438 25.7812C14.8439 25.7812 13.9546 26.7743 13.3053 27.4995C12.7926 28.072 12.5353 28.3594 11.6875 28.3594C10.8257 28.3594 10.5534 28.0662 10.0109 27.4821C9.34424 26.7643 8.43116 25.7812 6.44531 25.7812H3.86719C3.1564 25.7812 2.57812 25.203 2.57812 24.4922C2.57812 23.7814 3.1564 23.2031 3.86719 23.2031H40.1328C40.8436 23.2031 41.4219 23.7814 41.4219 24.4922C41.4219 25.203 40.8436 25.7812 40.1328 25.7812Z" fill="white"/>
<path d="M14.2656 12.8906C14.9776 12.8906 15.5547 12.3135 15.5547 11.6016C15.5547 10.8896 14.9776 10.3125 14.2656 10.3125C13.5537 10.3125 12.9766 10.8896 12.9766 11.6016C12.9766 12.3135 13.5537 12.8906 14.2656 12.8906Z" fill="white"/>
<path d="M29.7344 12.8906C30.4463 12.8906 31.0234 12.3135 31.0234 11.6016C31.0234 10.8896 30.4463 10.3125 29.7344 10.3125C29.0224 10.3125 28.4453 10.8896 28.4453 11.6016C28.4453 12.3135 29.0224 12.8906 29.7344 12.8906Z" fill="white"/>
<path d="M24.5781 10.3125C25.2901 10.3125 25.8672 9.73537 25.8672 9.02344C25.8672 8.31151 25.2901 7.73438 24.5781 7.73438C23.8662 7.73438 23.2891 8.31151 23.2891 9.02344C23.2891 9.73537 23.8662 10.3125 24.5781 10.3125Z" fill="white"/>
<path d="M19.4219 7.73438C20.1338 7.73438 20.7109 7.15724 20.7109 6.44531C20.7109 5.73338 20.1338 5.15625 19.4219 5.15625C18.7099 5.15625 18.1328 5.73338 18.1328 6.44531C18.1328 7.15724 18.7099 7.73438 19.4219 7.73438Z" fill="white"/>
</svg>
